<?xml version="1.0" encoding="utf-8"?>
<!-- Generator: Adobe Illustrator 26.5.0, SVG Export Plug-In . SVG Version: 6.00 Build 0)  -->
<svg version="1.1" id="Layer_1" xmlns="http://www.w3.org/2000/svg" xmlns:xlink="http://www.w3.org/1999/xlink" x="0px" y="0px"
	 viewBox="0 0 40.7 50.6" style="enable-background:new 0 0 40.7 50.6;" xml:space="preserve">
<style type="text/css">
	.st0{fill-rule:evenodd;clip-rule:evenodd;fill:#006366;}
</style>
<path class="st0" d="M31.6,38.1v1.7c0,5.4-5.1,9.8-11.3,9.8S9,45.3,9,39.8v-1.7h9.4c0.3,0.6,1.1,1.1,1.9,1.1s1.6-0.4,1.9-1.1H31.6z
	 M31.6,36.6v-2.2c0-1.6,0.9-3.1,2.3-4.2c3.8-3.1,6.2-7.6,6.2-12.5c0-9.5-8.9-17.2-19.8-17.2c-11,0-19.8,7.7-19.8,17.2
	c0,4.9,2.4,9.4,6.2,12.5C8,31.3,9,32.8,9,34.4v2.2h9.2V23.4l-5-4.4c-0.8-0.7-0.8-1.9,0-2.6c0.8-0.7,2.2-0.7,3,0l4.2,3.6l4.2-3.6
	c0.8-0.7,2.2-0.7,3,0c0.8,0.7,0.8,1.9,0,2.6l-5,4.4v13.2H31.6z"/>
</svg>
